# xmcd
#
# Track frame offsets:
#	150
#	10908
#	25518
#	38588
#	56562
#	69789
#	86838
#	102226
#	115098
#	126771
#	141252
#	151952
#
# Disc length: 2517 seconds
#
# Revision: 1
# Processed by: cddbd v1.5.1PL0 Copyright (c) Steve Scherf et al.
# Submitted via: EasyCDDAExtractor 6.2.0.3
#
DISCID=8f09d30c
DTITLE=Country América 100%
DYEAR=2005
DGENRE=Country
TTITLE0=Boy James - Sold Ronny
TTITLE1=Steve Hagard - Life Is A Mistery
TTITLE2=Ricky West - Papa Loved Mama
TTITLE3=Bellamy Brothers - Shine Tehm Buckies
TTITLE4=Cindy Ray - Mi Vida Lock My Crazy
TTITLE5=Al Anderson - Get Gone
TTITLE6=Sam James - God Blessed Texas
TTITLE7=Country Roots Band - Little Miss Honk Tonk
TTITLE8=Peter Hill - Cramson and Clover
TTITLE9=Samantha Blue - Heads Carolina
TTITLE10=Thomas Bubitt - Agamst The Gran
TTITLE11=Westerm Flyer - Sideen Tones
EXTD=by Flávio Abrahão Biasuz
EXTT0=
EXTT1=
EXTT2=
EXTT3=
EXTT4=
EXTT5=
EXTT6=
EXTT7=
EXTT8=
EXTT9=
EXTT10=
EXTT11=
PLAYORDER=
